{
	"asset":{
		"generator":"Khronos glTF Blender I/O v3.6.27",
		"version":"2.0"
	},
	"scene":0,
	"scenes":[
		{
			"name":"Scene",
			"nodes":[
				0
			]
		}
	],
	"nodes":[
		{
			"mesh":0,
			"name":"Cube.023",
			"translation":[
				0,
				2,
				0
			]
		}
	],
	"materials":[
		{
			"doubleSided":true,
			"name":"White",
			"pbrMetallicRoughness":{
				"baseColorFactor":[
					0.800000011920929,
					0.800000011920929,
					0.800000011920929,
					1
				],
				"metallicFactor":0,
				"roughnessFactor":0.5
			}
		},
		{
			"doubleSided":true,
			"name":"Orange",
			"pbrMetallicRoughness":{
				"baseColorFactor":[
					0.8631573915481567,
					0.1384313851594925,
					0.0009106439538300037,
					1
				],
				"metallicFactor":0,
				"roughnessFactor":0.5
			}
		},
		{
			"doubleSided":true,
			"name":"Red",
			"pbrMetallicRoughness":{
				"baseColorFactor":[
					0.5088815093040466,
					0.020288418978452682,
					0.030713465064764023,
					1
				],
				"metallicFactor":0,
				"roughnessFactor":0.5
			}
		},
		{
			"doubleSided":true,
			"name":"Yellow",
			"pbrMetallicRoughness":{
				"baseColorFactor":[
					0.8549925684928894,
					0.617206335067749,
					0.0006072522955946624,
					1
				],
				"metallicFactor":0,
				"roughnessFactor":0.5
			}
		},
		{
			"doubleSided":true,
			"name":"Green",
			"pbrMetallicRoughness":{
				"baseColorFactor":[
					0.026240859180688858,
					0.45078572630882263,
					0.02624134160578251,
					1
				],
				"metallicFactor":0,
				"roughnessFactor":0.5
			}
		},
		{
			"doubleSided":true,
			"name":"Blue",
			"pbrMetallicRoughness":{
				"baseColorFactor":[
					0.04231085628271103,
					0.19120138883590698,
					0.672443151473999,
					1
				],
				"metallicFactor":0,
				"roughnessFactor":0.5
			}
		}
	],
	"meshes":[
		{
			"name":"Cube.023",
			"primitives":[
				{
					"attributes":{
						"POSITION":0,
						"NORMAL":1,
						"TEXCOORD_0":2
					},
					"indices":3,
					"material":0
				},
				{
					"attributes":{
						"POSITION":4,
						"NORMAL":5,
						"TEXCOORD_0":6
					},
					"indices":7,
					"material":1
				},
				{
					"attributes":{
						"POSITION":8,
						"NORMAL":9,
						"TEXCOORD_0":10
					},
					"indices":11,
					"material":2
				},
				{
					"attributes":{
						"POSITION":12,
						"NORMAL":13,
						"TEXCOORD_0":14
					},
					"indices":15,
					"material":3
				},
				{
					"attributes":{
						"POSITION":16,
						"NORMAL":17,
						"TEXCOORD_0":18
					},
					"indices":19,
					"material":4
				},
				{
					"attributes":{
						"POSITION":20,
						"NORMAL":21,
						"TEXCOORD_0":22
					},
					"indices":23,
					"material":5
				}
			]
		}
	],
	"accessors":[
		{
			"bufferView":0,
			"componentType":5126,
			"count":88,
			"max":[
				3,
				1,
				3
			],
			"min":[
				-3,
				-1,
				-3
			],
			"type":"VEC3"
		},
		{
			"bufferView":1,
			"componentType":5126,
			"count":88,
			"type":"VEC3"
		},
		{
			"bufferView":2,
			"componentType":5126,
			"count":88,
			"type":"VEC2"
		},
		{
			"bufferView":3,
			"componentType":5123,
			"count":132,
			"type":"SCALAR"
		},
		{
			"bufferView":4,
			"componentType":5126,
			"count":168,
			"max":[
				-1,
				1,
				3
			],
			"min":[
				-3,
				-5,
				-3
			],
			"type":"VEC3"
		},
		{
			"bufferView":5,
			"componentType":5126,
			"count":168,
			"type":"VEC3"
		},
		{
			"bufferView":6,
			"componentType":5126,
			"count":168,
			"type":"VEC2"
		},
		{
			"bufferView":7,
			"componentType":5123,
			"count":252,
			"type":"SCALAR"
		},
		{
			"bufferView":8,
			"componentType":5126,
			"count":200,
			"max":[
				3,
				1,
				3
			],
			"min":[
				-1,
				-5,
				-3
			],
			"type":"VEC3"
		},
		{
			"bufferView":9,
			"componentType":5126,
			"count":200,
			"type":"VEC3"
		},
		{
			"bufferView":10,
			"componentType":5126,
			"count":200,
			"type":"VEC2"
		},
		{
			"bufferView":11,
			"componentType":5123,
			"count":300,
			"type":"SCALAR"
		},
		{
			"bufferView":12,
			"componentType":5126,
			"count":56,
			"max":[
				3,
				-3,
				3
			],
			"min":[
				-3,
				-5,
				-3
			],
			"type":"VEC3"
		},
		{
			"bufferView":13,
			"componentType":5126,
			"count":56,
			"type":"VEC3"
		},
		{
			"bufferView":14,
			"componentType":5126,
			"count":56,
			"type":"VEC2"
		},
		{
			"bufferView":15,
			"componentType":5123,
			"count":84,
			"type":"SCALAR"
		},
		{
			"bufferView":16,
			"componentType":5126,
			"count":56,
			"max":[
				3,
				1,
				3
			],
			"min":[
				-3,
				-5,
				1
			],
			"type":"VEC3"
		},
		{
			"bufferView":17,
			"componentType":5126,
			"count":56,
			"type":"VEC3"
		},
		{
			"bufferView":18,
			"componentType":5126,
			"count":56,
			"type":"VEC2"
		},
		{
			"bufferView":19,
			"componentType":5123,
			"count":84,
			"type":"SCALAR"
		},
		{
			"bufferView":20,
			"componentType":5126,
			"count":56,
			"max":[
				3,
				1,
				-1
			],
			"min":[
				-3,
				-5,
				-3
			],
			"type":"VEC3"
		},
		{
			"bufferView":21,
			"componentType":5126,
			"count":56,
			"type":"VEC3"
		},
		{
			"bufferView":22,
			"componentType":5126,
			"count":56,
			"type":"VEC2"
		},
		{
			"bufferView":23,
			"componentType":5123,
			"count":84,
			"type":"SCALAR"
		}
	],
	"bufferViews":[
		{
			"buffer":0,
			"byteLength":1056,
			"byteOffset":0,
			"target":34962
		},
		{
			"buffer":0,
			"byteLength":1056,
			"byteOffset":1056,
			"target":34962
		},
		{
			"buffer":0,
			"byteLength":704,
			"byteOffset":2112,
			"target":34962
		},
		{
			"buffer":0,
			"byteLength":264,
			"byteOffset":2816,
			"target":34963
		},
		{
			"buffer":0,
			"byteLength":2016,
			"byteOffset":3080,
			"target":34962
		},
		{
			"buffer":0,
			"byteLength":2016,
			"byteOffset":5096,
			"target":34962
		},
		{
			"buffer":0,
			"byteLength":1344,
			"byteOffset":7112,
			"target":34962
		},
		{
			"buffer":0,
			"byteLength":504,
			"byteOffset":8456,
			"target":34963
		},
		{
			"buffer":0,
			"byteLength":2400,
			"byteOffset":8960,
			"target":34962
		},
		{
			"buffer":0,
			"byteLength":2400,
			"byteOffset":11360,
			"target":34962
		},
		{
			"buffer":0,
			"byteLength":1600,
			"byteOffset":13760,
			"target":34962
		},
		{
			"buffer":0,
			"byteLength":600,
			"byteOffset":15360,
			"target":34963
		},
		{
			"buffer":0,
			"byteLength":672,
			"byteOffset":15960,
			"target":34962
		},
		{
			"buffer":0,
			"byteLength":672,
			"byteOffset":16632,
			"target":34962
		},
		{
			"buffer":0,
			"byteLength":448,
			"byteOffset":17304,
			"target":34962
		},
		{
			"buffer":0,
			"byteLength":168,
			"byteOffset":17752,
			"target":34963
		},
		{
			"buffer":0,
			"byteLength":672,
			"byteOffset":17920,
			"target":34962
		},
		{
			"buffer":0,
			"byteLength":672,
			"byteOffset":18592,
			"target":34962
		},
		{
			"buffer":0,
			"byteLength":448,
			"byteOffset":19264,
			"target":34962
		},
		{
			"buffer":0,
			"byteLength":168,
			"byteOffset":19712,
			"target":34963
		},
		{
			"buffer":0,
			"byteLength":672,
			"byteOffset":19880,
			"target":34962
		},
		{
			"buffer":0,
			"byteLength":672,
			"byteOffset":20552,
			"target":34962
		},
		{
			"buffer":0,
			"byteLength":448,
			"byteOffset":21224,
			"target":34962
		},
		{
			"buffer":0,
			"byteLength":168,
			"byteOffset":21672,
			"target":34963
		}
	],
	"buffers":[
		{
			"byteLength":21840,
			"uri":"data:application/octet-stream;base64,"
		}
	]
}
