{
	"asset":{
		"generator":"Khronos glTF Blender I/O v3.6.27",
		"version":"2.0"
	},
	"scene":0,
	"scenes":[
		{
			"name":"Scene",
			"nodes":[
				0
			]
		}
	],
	"nodes":[
		{
			"mesh":0,
			"name":"Cube",
			"translation":[
				1.999997615814209,
				1.999999761581421,
				-2.000000476837158
			]
		}
	],
	"materials":[
		{
			"doubleSided":true,
			"name":"Material.001",
			"pbrMetallicRoughness":{
				"baseColorFactor":[
					0,
					0,
					0,
					1
				],
				"metallicFactor":0,
				"roughnessFactor":0.5
			}
		},
		{
			"doubleSided":true,
			"name":"Material.002",
			"pbrMetallicRoughness":{
				"baseColorFactor":[
					0.800000011920929,
					0.800000011920929,
					0.800000011920929,
					1
				],
				"metallicFactor":0,
				"roughnessFactor":0.5
			}
		},
		{
			"doubleSided":true,
			"name":"Material.003",
			"pbrMetallicRoughness":{
				"baseColorFactor":[
					0.7681515216827393,
					0.03310457989573479,
					0.017641982063651085,
					1
				],
				"metallicFactor":0,
				"roughnessFactor":0.5
			}
		},
		{
			"doubleSided":true,
			"name":"Material.004",
			"pbrMetallicRoughness":{
				"baseColorFactor":[
					0.002124115126207471,
					0.17788809537887573,
					0.6938716769218445,
					1
				],
				"metallicFactor":0,
				"roughnessFactor":0.5
			}
		},
		{
			"doubleSided":true,
			"name":"Material.005",
			"pbrMetallicRoughness":{
				"baseColorFactor":[
					0.7454043626785278,
					0.1746472418308258,
					0.002428285079076886,
					1
				],
				"metallicFactor":0,
				"roughnessFactor":0.5
			}
		},
		{
			"doubleSided":true,
			"name":"Material.006",
			"pbrMetallicRoughness":{
				"baseColorFactor":[
					0.7605241537094116,
					0.7529419660568237,
					0.008023424074053764,
					1
				],
				"metallicFactor":0,
				"roughnessFactor":0.5
			}
		},
		{
			"doubleSided":true,
			"name":"Material.007",
			"pbrMetallicRoughness":{
				"baseColorFactor":[
					0.030713217332959175,
					0.2831486761569977,
					0.03820444270968437,
					1
				],
				"metallicFactor":0,
				"roughnessFactor":0.5
			}
		}
	],
	"meshes":[
		{
			"name":"Cube.001",
			"primitives":[
				{
					"attributes":{
						"POSITION":0,
						"NORMAL":1,
						"TEXCOORD_0":2
					},
					"indices":3,
					"material":0
				},
				{
					"attributes":{
						"POSITION":4,
						"NORMAL":5,
						"TEXCOORD_0":6
					},
					"indices":7,
					"material":1
				},
				{
					"attributes":{
						"POSITION":8,
						"NORMAL":9,
						"TEXCOORD_0":10
					},
					"indices":11,
					"material":2
				},
				{
					"attributes":{
						"POSITION":12,
						"NORMAL":13,
						"TEXCOORD_0":14
					},
					"indices":15,
					"material":3
				},
				{
					"attributes":{
						"POSITION":16,
						"NORMAL":17,
						"TEXCOORD_0":18
					},
					"indices":7,
					"material":4
				},
				{
					"attributes":{
						"POSITION":19,
						"NORMAL":20,
						"TEXCOORD_0":21
					},
					"indices":11,
					"material":5
				},
				{
					"attributes":{
						"POSITION":22,
						"NORMAL":23,
						"TEXCOORD_0":24
					},
					"indices":25,
					"material":6
				}
			]
		}
	],
	"accessors":[
		{
			"bufferView":0,
			"componentType":5126,
			"count":29916,
			"max":[
				3.000002384185791,
				3.000000238418579,
				3.000000476837158
			],
			"min":[
				-2.999997615814209,
				-2.999999761581421,
				-2.999999523162842
			],
			"type":"VEC3"
		},
		{
			"bufferView":1,
			"componentType":5126,
			"count":29916,
			"type":"VEC3"
		},
		{
			"bufferView":2,
			"componentType":5126,
			"count":29916,
			"type":"VEC2"
		},
		{
			"bufferView":3,
			"componentType":5123,
			"count":163944,
			"type":"SCALAR"
		},
		{
			"bufferView":4,
			"componentType":5126,
			"count":36,
			"max":[
				-2.999997615814209,
				2.8600003719329834,
				2.8600006103515625
			],
			"min":[
				-2.999997615814209,
				-2.859999656677246,
				-2.859999656677246
			],
			"type":"VEC3"
		},
		{
			"bufferView":5,
			"componentType":5126,
			"count":36,
			"type":"VEC3"
		},
		{
			"bufferView":6,
			"componentType":5126,
			"count":36,
			"type":"VEC2"
		},
		{
			"bufferView":7,
			"componentType":5123,
			"count":54,
			"type":"SCALAR"
		},
		{
			"bufferView":8,
			"componentType":5126,
			"count":36,
			"max":[
				2.8600025177001953,
				2.8600003719329834,
				3.000000476837158
			],
			"min":[
				-2.8599977493286133,
				-2.859999656677246,
				3.000000476837158
			],
			"type":"VEC3"
		},
		{
			"bufferView":9,
			"componentType":5126,
			"count":36,
			"type":"VEC3"
		},
		{
			"bufferView":10,
			"componentType":5126,
			"count":36,
			"type":"VEC2"
		},
		{
			"bufferView":11,
			"componentType":5123,
			"count":54,
			"type":"SCALAR"
		},
		{
			"bufferView":12,
			"componentType":5126,
			"count":36,
			"max":[
				2.8600025177001953,
				3.000000238418579,
				2.8600006103515625
			],
			"min":[
				-2.8599977493286133,
				3.000000238418579,
				-2.859999656677246
			],
			"type":"VEC3"
		},
		{
			"bufferView":13,
			"componentType":5126,
			"count":36,
			"type":"VEC3"
		},
		{
			"bufferView":14,
			"componentType":5126,
			"count":36,
			"type":"VEC2"
		},
		{
			"bufferView":15,
			"componentType":5123,
			"count":54,
			"type":"SCALAR"
		},
		{
			"bufferView":16,
			"componentType":5126,
			"count":36,
			"max":[
				2.8600025177001953,
				2.8600003719329834,
				-2.999999523162842
			],
			"min":[
				-2.8599977493286133,
				-2.859999656677246,
				-2.999999523162842
			],
			"type":"VEC3"
		},
		{
			"bufferView":17,
			"componentType":5126,
			"count":36,
			"type":"VEC3"
		},
		{
			"bufferView":18,
			"componentType":5126,
			"count":36,
			"type":"VEC2"
		},
		{
			"bufferView":19,
			"componentType":5126,
			"count":36,
			"max":[
				3.000002384185791,
				2.8600003719329834,
				2.8600006103515625
			],
			"min":[
				3.000002384185791,
				-2.859999656677246,
				-2.859999656677246
			],
			"type":"VEC3"
		},
		{
			"bufferView":20,
			"componentType":5126,
			"count":36,
			"type":"VEC3"
		},
		{
			"bufferView":21,
			"componentType":5126,
			"count":36,
			"type":"VEC2"
		},
		{
			"bufferView":22,
			"componentType":5126,
			"count":36,
			"max":[
				2.8600025177001953,
				-2.999999761581421,
				2.8600006103515625
			],
			"min":[
				-2.8599977493286133,
				-2.999999761581421,
				-2.859999656677246
			],
			"type":"VEC3"
		},
		{
			"bufferView":23,
			"componentType":5126,
			"count":36,
			"type":"VEC3"
		},
		{
			"bufferView":24,
			"componentType":5126,
			"count":36,
			"type":"VEC2"
		},
		{
			"bufferView":25,
			"componentType":5123,
			"count":54,
			"type":"SCALAR"
		}
	],
	"bufferViews":[
		{
			"buffer":0,
			"byteLength":358992,
			"byteOffset":0,
			"target":34962
		},
		{
			"buffer":0,
			"byteLength":358992,
			"byteOffset":358992,
			"target":34962
		},
		{
			"buffer":0,
			"byteLength":239328,
			"byteOffset":717984,
			"target":34962
		},
		{
			"buffer":0,
			"byteLength":327888,
			"byteOffset":957312,
			"target":34963
		},
		{
			"buffer":0,
			"byteLength":432,
			"byteOffset":1285200,
			"target":34962
		},
		{
			"buffer":0,
			"byteLength":432,
			"byteOffset":1285632,
			"target":34962
		},
		{
			"buffer":0,
			"byteLength":288,
			"byteOffset":1286064,
			"target":34962
		},
		{
			"buffer":0,
			"byteLength":108,
			"byteOffset":1286352,
			"target":34963
		},
		{
			"buffer":0,
			"byteLength":432,
			"byteOffset":1286460,
			"target":34962
		},
		{
			"buffer":0,
			"byteLength":432,
			"byteOffset":1286892,
			"target":34962
		},
		{
			"buffer":0,
			"byteLength":288,
			"byteOffset":1287324,
			"target":34962
		},
		{
			"buffer":0,
			"byteLength":108,
			"byteOffset":1287612,
			"target":34963
		},
		{
			"buffer":0,
			"byteLength":432,
			"byteOffset":1287720,
			"target":34962
		},
		{
			"buffer":0,
			"byteLength":432,
			"byteOffset":1288152,
			"target":34962
		},
		{
			"buffer":0,
			"byteLength":288,
			"byteOffset":1288584,
			"target":34962
		},
		{
			"buffer":0,
			"byteLength":108,
			"byteOffset":1288872,
			"target":34963
		},
		{
			"buffer":0,
			"byteLength":432,
			"byteOffset":1288980,
			"target":34962
		},
		{
			"buffer":0,
			"byteLength":432,
			"byteOffset":1289412,
			"target":34962
		},
		{
			"buffer":0,
			"byteLength":288,
			"byteOffset":1289844,
			"target":34962
		},
		{
			"buffer":0,
			"byteLength":432,
			"byteOffset":1290132,
			"target":34962
		},
		{
			"buffer":0,
			"byteLength":432,
			"byteOffset":1290564,
			"target":34962
		},
		{
			"buffer":0,
			"byteLength":288,
			"byteOffset":1290996,
			"target":34962
		},
		{
			"buffer":0,
			"byteLength":432,
			"byteOffset":1291284,
			"target":34962
		},
		{
			"buffer":0,
			"byteLength":432,
			"byteOffset":1291716,
			"target":34962
		},
		{
			"buffer":0,
			"byteLength":288,
			"byteOffset":1292148,
			"target":34962
		},
		{
			"buffer":0,
			"byteLength":108,
			"byteOffset":1292436,
			"target":34963
		}
	],
	"buffers":[
		{
			"byteLength":1292544,
			"uri":"data:application/octet-stream;base64,"
		}
	]
}
